<svg xmlns="http://www.w3.org/2000/svg" height="512pt" version="1.1" viewBox="-89 0 512 512.00002" width="512pt">
<g id="surface1">
<path d="M 126.707031 512 C 196.683594 512 253.410156 455.273438 253.410156 385.292969 C 253.410156 315.316406 126.707031 186.183594 126.707031 186.183594 Z M 126.707031 512 " style=" stroke:none;fill-rule:nonzero;fill:rgb(80.392157%,16.470588%,0%);fill-opacity:1;" />
<path d="M 0 385.292969 C 0 455.273438 56.726562 512 126.707031 512 L 126.707031 186.183594 C 126.707031 186.183594 0 315.316406 0 385.292969 Z M 45.25 385.292969 C 45.296875 425.261719 77.6875 457.652344 117.65625 457.699219 C 77.6875 457.652344 45.296875 425.261719 45.25 385.292969 Z M 45.25 385.292969 " style=" stroke:none;fill-rule:nonzero;fill:rgb(67.058824%,13.72549%,0%);fill-opacity:1;" />
<path d="M 190.058594 140.933594 C 190.105469 180.902344 222.492188 213.292969 262.460938 213.335938 L 262.460938 22.851562 C 223.542969 69.507812 190.058594 120.28125 190.058594 140.933594 Z M 190.058594 140.933594 " style=" stroke:none;fill-rule:nonzero;fill:rgb(67.058824%,13.72549%,0%);fill-opacity:1;" />
<path d="M 262.460938 22.816406 L 262.460938 213.335938 C 302.429688 213.292969 334.820312 180.902344 334.863281 140.933594 C 334.863281 121.773438 303.46875 71.871094 262.460938 22.816406 Z M 262.460938 22.816406 " style=" stroke:none;fill-rule:nonzero;fill:rgb(80.392157%,16.470588%,0%);fill-opacity:1;" />
<path d="M 132.308594 52.238281 C 122.957031 33.890625 111.996094 16.410156 99.554688 0 L 99.554688 95.679688 C 114.664062 95.671875 128.183594 86.296875 133.484375 72.152344 C 135.792969 65.625 135.371094 58.445312 132.308594 52.238281 Z M 132.308594 52.238281 " style=" stroke:none;fill-rule:nonzero;fill:rgb(80.392157%,16.470588%,0%);fill-opacity:1;" />
<path d="M 99.554688 95.679688 L 99.554688 0.0078125 C 87.160156 16.304688 76.191406 33.640625 66.773438 51.824219 C 63.71875 58.027344 63.261719 65.191406 65.496094 71.734375 C 70.683594 86.085938 84.296875 95.65625 99.554688 95.679688 Z M 99.554688 95.679688 " style=" stroke:none;fill-rule:nonzero;fill:rgb(67.058824%,13.72549%,0%);fill-opacity:1;" />
<path d="M 117.65625 466.75 C 72.691406 466.699219 36.25 430.257812 36.199219 385.292969 L 54.300781 385.292969 C 54.347656 420.265625 82.683594 448.601562 117.65625 448.648438 Z M 117.65625 466.75 " style=" stroke:none;fill-rule:nonzero;fill:rgb(73.72549%,74.509804%,75.294118%);fill-opacity:1;" />
</g>
</svg>