<?xml version="1.0" encoding="iso-8859-1"?>
<!-- Generator: Adobe Illustrator 16.0.0, SVG Export Plug-In . SVG Version: 6.00 Build 0)  -->
<!DOCTYPE svg PUBLIC "-//W3C//DTD SVG 1.1//EN" "http://www.w3.org/Graphics/SVG/1.1/DTD/svg11.dtd">
<svg version="1.1" id="Capa_1" xmlns="http://www.w3.org/2000/svg" xmlns:xlink="http://www.w3.org/1999/xlink" x="0px" y="0px"
	 width="561.251px" height="561.251px" viewBox="0 0 561.251 561.251" style="enable-background:new 0 0 561.251 561.251;"
	 xml:space="preserve">
<g>
	<g>
		<path d="M248.837,271.567c-31.764,0-57.512,25.756-57.512,57.521s25.748,57.512,57.512,57.512s57.521-25.747,57.521-57.512
			S280.602,271.567,248.837,271.567z M265.911,304.865c-7.982-7.253-15.347-10.131-21.855-8.57
			c-10.037,2.394-16.869,15.144-18.654,19.849l-8.068-3.062c0.334-0.875,8.225-21.237,24.707-25.18
			c9.466-2.27,19.452,1.301,29.675,10.58L265.911,304.865z"/>
		<path d="M210.645,450.489c-0.721,0.727-1.439,1.436-2.154,2.145c-1.968,1.975,1.084,5.024,3.05,3.062
			c0.715-0.721,1.436-1.442,2.155-2.158C215.669,451.582,212.619,448.532,210.645,450.489z"/>
		<path d="M324.321,387.309c0,6.479,0,12.944,0,19.423c0,2.778,4.314,2.778,4.314,0c0-6.479,0-12.944,0-19.423
			C328.636,384.53,324.321,384.53,324.321,387.309z"/>
		<path d="M309.23,439.081c-2.778-0.248-2.754,4.072,0,4.314c1.938,0.16,3.659,2.395,4.941,3.671
			c1.975,1.974,5.019-1.075,3.05-3.038C314.929,441.735,312.605,439.37,309.23,439.081z"/>
		<path d="M125.902,411.034c-6.047,0-11.996,0.662-16.621,4.941c-2.045,1.892,1.017,4.941,3.056,3.05
			c3.724-3.452,8.742-3.664,13.565-3.677C128.681,415.349,128.681,411.034,125.902,411.034z"/>
		<path d="M352.361,326.925c-2.784,0-2.784,4.309,0,4.309S355.146,326.925,352.361,326.925z"/>
		<path d="M371.772,266.537c-2.784,0-2.784,4.317,0,4.317C374.551,270.854,374.551,266.537,371.772,266.537z"/>
		<path d="M528.124,154.451L421.688,83.3l-65.834-2.474l-49.319-32.97l-50.283,7.923L172.804,0l-47.966,71.76l106.5,71.189
			l-3.626,1.277l-92.169-39.753l-34.185,79.254l88.333,38.107c-37.782,28.714-63.408,78.729-65.128,136.074
			c-11.511,0.887-22.872,3.724-33.851,8.477c-44.821,19.411-68.462,64.817-52.701,101.222
			c10.592,24.453,36.745,39.638,68.249,39.638c13.885,0,28.271-3.044,41.624-8.837c7.258-3.145,14.145-7.093,20.555-11.763
			c23.466,26.575,53.646,42.404,85.792,44.946c3.437,3.315,7.046,6.389,10.731,9.126c17.836,13.24,38.878,20.534,59.234,20.534l0,0
			c22.78,0,42.747-9.292,54.775-25.506c16.013-21.568,15.988-51.488,0.166-78.831c13.246-24.075,21.089-51.767,22.821-80.576
			c10.054-5.414,18.519-12.696,25.186-21.675c14.7-19.807,18.885-45.465,11.774-72.256c-3.28-12.371-8.872-24.275-16.302-35.293
			l56.141,24.216l34.182-79.251l-7.743-3.349L528.124,154.451z M180.539,38.904l69.236,46.284l50.289-7.923l46.801,31.294
			l65.834,2.474l76.516,51.14l-10.202,15.253l-60.207-25.978l-15.782-10.545l-65.834-2.477l-44.094-29.474l-50.286,7.923
			l-79.065-52.848L180.539,38.904z M426.43,285.726c6.07,22.898,2.636,44.638-9.677,61.212
			c-6.158,8.299-14.186,14.848-23.855,19.481l-3.505,1.69l-0.159,3.89c-1.212,29.411-9.228,57.7-23.171,81.77l-1.962,3.393
			l2.092,3.298c14.89,23.619,15.812,49.509,2.4,67.572c-9.706,13.074-25.464,20.268-44.384,20.268l0,0
			c-17.603,0-35.902-6.377-51.524-17.975c-3.807-2.825-7.513-6.053-11.015-9.587l-1.744-1.762l-2.477-0.142
			c-31.303-1.797-60.798-17.839-83.052-45.182l-4.117-5.054l-5.024,4.155c-6.851,5.65-14.422,10.278-22.517,13.789
			c-11.73,5.084-24.344,7.773-36.473,7.773c-26.261,0-47.862-12.212-56.374-31.848c-12.921-29.861,7.693-67.631,45.971-84.205
			c11.396-4.93,23.235-7.523,35.184-7.707l6.372-0.154v-6.383c0-58.83,26.832-109.958,66.174-136.196l20.93,9.032l48.022-16.893
			l45.924,19.804l65.189-9.472l12.743,5.488C411.062,250.146,421.564,267.391,426.43,285.726z M464.11,234.453l-76.65-33.064
			l-65.19,9.483l-48.695-21.01l-48.022,16.893l-87.325-37.675l11.966-27.733l76.479,32.979l48.017-16.887l51.695,22.304
			l65.195-9.478l84.501,36.442L464.11,234.453z"/>
	</g>
</g>
<g>
</g>
<g>
</g>
<g>
</g>
<g>
</g>
<g>
</g>
<g>
</g>
<g>
</g>
<g>
</g>
<g>
</g>
<g>
</g>
<g>
</g>
<g>
</g>
<g>
</g>
<g>
</g>
<g>
</g>
</svg>
