<svg xmlns="http://www.w3.org/2000/svg" height="136pt" version="1.1" viewBox="0 0 136 136.22983" width="136pt">
<g id="surface1">
<path d="M 111.238281 1.464844 C 109.285156 -0.488281 106.117188 -0.488281 104.164062 1.464844 C 102.210938 3.417969 102.210938 6.585938 104.164062 8.539062 L 109.402344 13.714844 L 104.316406 18.796875 L 94.507812 8.988281 C 92.523438 7.097656 89.410156 7.097656 87.433594 8.988281 C 85.480469 10.941406 85.480469 14.105469 87.425781 16.058594 C 87.425781 16.058594 87.433594 16.058594 87.433594 16.0625 L 90.828125 19.460938 L 81.785156 28.570312 L 72.199219 38.144531 L 43.457031 66.886719 L 33.921875 76.492188 L 23.550781 86.867188 C 22.816406 87.601562 22.816406 88.78125 23.550781 89.515625 L 28.636719 94.601562 L 22.226562 101.011719 C 21.492188 101.742188 21.492188 102.929688 22.226562 103.664062 L 26.160156 107.597656 L 0.53125 133.179688 C -0.121094 133.984375 0.0078125 135.164062 0.8125 135.816406 C 1.449219 136.328125 2.347656 136.367188 3.03125 135.914062 L 3.117188 135.828125 L 28.75 110.257812 L 32.675781 114.199219 C 33.40625 114.925781 34.585938 114.925781 35.320312 114.199219 L 41.730469 107.789062 L 46.816406 112.871094 C 47.550781 113.601562 48.734375 113.601562 49.46875 112.871094 L 116.796875 45.539062 L 120.210938 48.953125 C 122.164062 50.90625 125.332031 50.90625 127.285156 48.953125 C 129.238281 47 129.238281 43.832031 127.285156 41.878906 L 117.472656 32.070312 L 122.558594 26.984375 L 127.796875 32.21875 C 129.75 34.171875 132.914062 34.171875 134.867188 32.21875 C 136.820312 30.265625 136.820312 27.101562 134.867188 25.148438 Z M 34.007812 110.183594 L 26.136719 102.308594 L 31.222656 97.226562 L 39.09375 105.097656 Z M 48.15625 108.847656 L 43.082031 103.847656 L 32.546875 93.277344 L 27.472656 88.207031 L 35.171875 80.46875 L 41.320312 86.613281 C 42.125 87.269531 43.308594 87.140625 43.957031 86.335938 C 44.46875 85.695312 44.511719 84.796875 44.054688 84.121094 L 43.917969 83.96875 L 37.796875 77.820312 L 44.734375 70.882812 L 50.878906 77.03125 C 51.683594 77.683594 52.867188 77.558594 53.515625 76.753906 C 54.035156 76.113281 54.074219 75.214844 53.617188 74.53125 L 53.53125 74.441406 L 47.378906 68.296875 L 54.316406 61.359375 L 60.503906 67.445312 C 61.078125 68.304688 62.238281 68.539062 63.105469 67.964844 C 63.964844 67.386719 64.191406 66.226562 63.621094 65.363281 C 63.515625 65.207031 63.386719 65.066406 63.242188 64.949219 L 63.152344 64.859375 L 57 58.699219 L 63.914062 51.726562 L 70.0625 57.875 C 70.894531 58.488281 72.066406 58.308594 72.683594 57.476562 C 73.175781 56.804688 73.167969 55.886719 72.660156 55.226562 L 66.535156 49.074219 L 73.472656 42.144531 L 79.621094 48.289062 C 80.195312 49.148438 81.363281 49.382812 82.222656 48.808594 C 83.082031 48.230469 83.316406 47.070312 82.742188 46.203125 C 82.632812 46.046875 82.507812 45.90625 82.359375 45.789062 L 76.125 39.554688 L 83.046875 32.632812 L 89.242188 38.707031 C 89.820312 39.566406 90.984375 39.800781 91.84375 39.222656 C 92.703125 38.648438 92.9375 37.480469 92.363281 36.621094 C 92.261719 36.464844 92.128906 36.324219 91.980469 36.207031 L 91.894531 36.117188 L 85.746094 29.957031 L 93.472656 22.234375 L 114.167969 42.929688 Z M 124.648438 44.515625 C 125.132812 45.003906 125.132812 45.789062 124.648438 46.277344 C 124.160156 46.761719 123.375 46.761719 122.886719 46.277344 L 118.160156 41.550781 L 94.804688 18.210938 L 90.082031 13.484375 C 89.589844 12.996094 89.589844 12.199219 90.082031 11.710938 C 90.570312 11.222656 91.367188 11.222656 91.855469 11.710938 L 113.511719 33.371094 Z M 114.835938 29.40625 L 106.964844 21.535156 L 112.046875 16.449219 L 119.921875 24.324219 Z M 132.230469 29.554688 C 131.746094 30.039062 130.957031 30.039062 130.46875 29.554688 L 106.8125 5.902344 C 106.324219 5.410156 106.324219 4.617188 106.8125 4.125 C 107.300781 3.636719 108.097656 3.636719 108.585938 4.125 L 132.230469 27.785156 C 132.71875 28.269531 132.71875 29.058594 132.230469 29.546875 Z M 132.230469 29.554688 " style=" stroke:none;fill-rule:nonzero;fill:rgb(0%,0%,0%);fill-opacity:1;" />
</g>
</svg>