<?xml version="1.0" encoding="iso-8859-1"?>
<!-- Generator: Adobe Illustrator 16.0.0, SVG Export Plug-In . SVG Version: 6.00 Build 0)  -->
<!DOCTYPE svg PUBLIC "-//W3C//DTD SVG 1.1//EN" "http://www.w3.org/Graphics/SVG/1.1/DTD/svg11.dtd">
<svg version="1.1" id="Capa_1" xmlns="http://www.w3.org/2000/svg" xmlns:xlink="http://www.w3.org/1999/xlink" x="0px" y="0px"
	 width="326.58px" height="326.58px" viewBox="0 0 326.58 326.58" style="enable-background:new 0 0 326.58 326.58;"
	 xml:space="preserve">
<g>
	<g>
		<path d="M94.201,160.039L7.322,73.166c-1.094-1.092-2.873-1.092-3.961,0c-1.095,1.091-1.095,2.867,0,3.961l84.892,84.901
			L0.821,249.454c-1.094,1.096-1.094,2.879,0,3.963c0.548,0.557,1.265,0.816,1.981,0.816c0.717,0,1.438-0.275,1.987-0.816
			l89.412-89.424C95.296,162.915,95.296,161.139,94.201,160.039z"/>
		<path d="M116.603,253.417c0.547,0.557,1.264,0.816,1.98,0.816c0.718,0,1.434-0.275,1.987-0.816l89.401-89.413
			c1.084-1.094,1.084-2.87,0-3.964l-86.874-86.873c-1.094-1.092-2.872-1.092-3.961,0c-1.095,1.091-1.095,2.867,0,3.961
			l84.887,84.896l-87.42,87.431C115.504,250.549,115.504,252.333,116.603,253.417z"/>
		<path d="M234.36,254.233c0.713,0,1.434-0.275,1.986-0.816l89.425-89.424c1.078-1.089,1.078-2.864,0-3.959l-86.907-86.868
			c-1.082-1.092-2.866-1.092-3.963,0c-1.083,1.091-1.083,2.867,0,3.961l84.904,84.901l-87.432,87.426
			c-1.093,1.096-1.093,2.879,0,3.963C232.921,253.973,233.64,254.233,234.36,254.233z"/>
	</g>
</g>
<g>
</g>
<g>
</g>
<g>
</g>
<g>
</g>
<g>
</g>
<g>
</g>
<g>
</g>
<g>
</g>
<g>
</g>
<g>
</g>
<g>
</g>
<g>
</g>
<g>
</g>
<g>
</g>
<g>
</g>
</svg>
