<?xml version="1.0" encoding="iso-8859-1"?>
<!-- Generator: Adobe Illustrator 19.0.0, SVG Export Plug-In . SVG Version: 6.00 Build 0)  -->
<svg version="1.1" id="Capa_1" xmlns="http://www.w3.org/2000/svg" xmlns:xlink="http://www.w3.org/1999/xlink" x="0px" y="0px"
	 viewBox="0 0 480 480" style="enable-background:new 0 0 480 480;" xml:space="preserve">
<g>
	<g>
		<path d="M424,40h-84.6c-55.536-53.334-143.265-53.334-198.8,0H56c-30.913,0.035-55.965,25.087-56,56v328
			c0.035,30.913,25.087,55.965,56,56h368c30.913-0.035,55.965-25.087,56-56v-328C479.965,65.087,454.913,40.035,424,40z
			 M149.629,53.334C173.625,29.42,206.123,15.995,240,16c34.039-0.086,66.692,13.474,90.656,37.648h-0.008
			c49.9,50.074,49.759,131.119-0.315,181.019c-50.074,49.9-131.119,49.759-181.019-0.315
			C99.414,184.278,99.555,103.233,149.629,53.334z M464,424c-0.026,22.08-17.92,39.974-40,40H56c-22.08-0.026-39.974-17.92-40-40
			v-328c0.026-22.08,17.92-39.974,40-40h70c-1.464,1.896-2.784,3.88-4.152,5.84c-0.728,1.04-1.512,2.048-2.208,3.104
			c-2.4,3.632-4.632,7.344-6.672,11.152c-0.376,0.688-0.672,1.416-1.032,2.112c-1.6,3.16-3.2,6.4-4.544,9.6
			c-0.584,1.376-1.088,2.792-1.6,4.184c-1.032,2.664-2.016,5.344-2.88,8.072c-0.504,1.6-0.96,3.144-1.408,4.728
			c-0.741,2.667-1.411,5.357-2.008,8.072c-0.352,1.6-0.704,3.2-1,4.8c-0.544,2.928-0.952,5.88-1.304,8.856
			c-0.176,1.4-0.392,2.784-0.52,4.2c-0.4,4.384-0.648,8.8-0.648,13.256c0.018,79.529,64.504,143.985,144.033,143.967
			c79.503-0.018,143.949-64.464,143.967-143.967c0-4.456-0.248-8.872-0.648-13.248c-0.128-1.424-0.352-2.816-0.52-4.224
			c-0.36-2.968-0.8-5.92-1.304-8.84c-0.296-1.6-0.648-3.2-1-4.8c-0.592-2.715-1.261-5.4-2.008-8.056
			c-0.448-1.6-0.904-3.2-1.408-4.752c-0.864-2.72-1.84-5.392-2.872-8.048c-0.544-1.4-1.048-2.824-1.6-4.208
			c-1.376-3.2-2.896-6.4-4.512-9.552c-0.376-0.72-0.68-1.472-1.064-2.192c-2.04-3.8-4.272-7.504-6.664-11.12
			c-0.712-1.088-1.512-2.112-2.256-3.2c-1.36-1.944-2.664-3.904-4.112-5.784H424c22.08,0.026,39.974,17.92,40,40V424z"/>
	</g>
</g>
<g>
	<g>
		<path d="M240,32c-61.856,0-112,50.144-112,112c0.066,61.828,50.172,111.934,112,112c61.856,0,112-50.144,112-112
			S301.856,32,240,32z M313.24,205.928l-16.672-16.672l-11.312,11.312l16.672,16.672c-15.203,12.895-34.06,20.711-53.928,22.352
			v-23.592h-16v23.592c-19.868-1.641-38.725-9.457-53.928-22.352l16.672-16.672l-11.312-11.312l-16.672,16.672
			c-12.895-15.203-20.711-34.06-22.352-53.928H168v-16h-23.592c1.641-19.868,9.457-38.725,22.352-53.928l16.672,16.672
			l11.312-11.312l-16.672-16.672C193.275,57.865,212.132,50.05,232,48.409v23.592h16V48.409
			c19.868,1.641,38.725,9.457,53.928,22.352l-16.672,16.672l11.312,11.312l16.672-16.672c12.895,15.203,20.711,34.06,22.352,53.928
			H312v16h23.592C333.951,171.868,326.135,190.725,313.24,205.928z"/>
	</g>
</g>
<g>
	<g>
		<path d="M248,121.472V88.001h-16v33.472c-12.473,4.393-19.023,18.066-14.629,30.539c3.38,9.596,12.455,16.009,22.629,15.989
			c13.224,0.025,23.964-10.675,23.989-23.899C264.009,133.928,257.596,124.852,248,121.472z M240,152.001c-4.418,0-8-3.582-8-8
			c0-4.418,3.582-8,8-8c4.418,0,8,3.582,8,8C248,148.418,244.418,152.001,240,152.001z"/>
	</g>
</g>
<g>
	<g>
		<path d="M240,320c-4.418,0-8,3.582-8,8v96c0,4.418,3.582,8,8,8c4.418,0,8-3.582,8-8v-96C248,323.582,244.418,320,240,320z"/>
	</g>
</g>
<g>
	<g>
		<path d="M180,304c-6.627,0-12,5.373-12,12s5.373,12,12,12s12-5.373,12-12S186.628,304,180,304z M180,320c-2.209,0-4-1.791-4-4
			c0-2.209,1.791-4,4-4s4,1.791,4,4C184,318.209,182.209,320,180,320z"/>
	</g>
</g>
<g>
	<g>
		<path d="M180,360c-6.627,0-12,5.373-12,12s5.373,12,12,12s12-5.373,12-12S186.628,360,180,360z M180,376c-2.209,0-4-1.791-4-4
			c0-2.209,1.791-4,4-4s4,1.791,4,4C184,374.209,182.209,376,180,376z"/>
	</g>
</g>
<g>
	<g>
		<path d="M180,416c-6.627,0-12,5.373-12,12s5.373,12,12,12s12-5.373,12-12S186.628,416,180,416z M180,432c-2.209,0-4-1.791-4-4
			c0-2.209,1.791-4,4-4s4,1.791,4,4C184,430.209,182.209,432,180,432z"/>
	</g>
</g>
<g>
	<g>
		<path d="M140,272c-6.627,0-12,5.373-12,12s5.373,12,12,12s12-5.373,12-12S146.628,272,140,272z M140,288c-2.209,0-4-1.791-4-4
			c0-2.209,1.791-4,4-4s4,1.791,4,4C144,286.209,142.209,288,140,288z"/>
	</g>
</g>
<g>
	<g>
		<path d="M140,328c-6.627,0-12,5.373-12,12s5.373,12,12,12s12-5.373,12-12S146.628,328,140,328z M140,344c-2.209,0-4-1.791-4-4
			c0-2.209,1.791-4,4-4s4,1.791,4,4C144,342.209,142.209,344,140,344z"/>
	</g>
</g>
<g>
	<g>
		<path d="M140,384c-6.627,0-12,5.373-12,12s5.373,12,12,12s12-5.373,12-12S146.628,384,140,384z M140,400c-2.209,0-4-1.791-4-4
			c0-2.209,1.791-4,4-4s4,1.791,4,4C144,398.209,142.209,400,140,400z"/>
	</g>
</g>
<g>
	<g>
		<path d="M100,304c-6.627,0-12,5.373-12,12s5.373,12,12,12s12-5.373,12-12S106.628,304,100,304z M100,320c-2.209,0-4-1.791-4-4
			c0-2.209,1.791-4,4-4s4,1.791,4,4C104,318.209,102.209,320,100,320z"/>
	</g>
</g>
<g>
	<g>
		<path d="M100,360c-6.627,0-12,5.373-12,12s5.373,12,12,12s12-5.373,12-12S106.628,360,100,360z M100,376c-2.209,0-4-1.791-4-4
			c0-2.209,1.791-4,4-4s4,1.791,4,4C104,374.209,102.209,376,100,376z"/>
	</g>
</g>
<g>
	<g>
		<path d="M100,416c-6.627,0-12,5.373-12,12s5.373,12,12,12s12-5.373,12-12S106.628,416,100,416z M100,432c-2.209,0-4-1.791-4-4
			c0-2.209,1.791-4,4-4s4,1.791,4,4C104,430.209,102.209,432,100,432z"/>
	</g>
</g>
<g>
	<g>
		<path d="M60,272c-6.627,0-12,5.373-12,12s5.373,12,12,12s12-5.373,12-12S66.628,272,60,272z M60,288c-2.209,0-4-1.791-4-4
			c0-2.209,1.791-4,4-4s4,1.791,4,4C64,286.209,62.209,288,60,288z"/>
	</g>
</g>
<g>
	<g>
		<path d="M60,216.001c-6.627,0-12,5.373-12,12s5.373,12,12,12s12-5.373,12-12S66.628,216.001,60,216.001z M60,232.001
			c-2.209,0-4-1.791-4-4s1.791-4,4-4s4,1.791,4,4S62.209,232.001,60,232.001z"/>
	</g>
</g>
<g>
	<g>
		<path d="M60,328c-6.627,0-12,5.373-12,12s5.373,12,12,12s12-5.373,12-12S66.628,328,60,328z M60,344c-2.209,0-4-1.791-4-4
			c0-2.209,1.791-4,4-4s4,1.791,4,4C64,342.209,62.209,344,60,344z"/>
	</g>
</g>
<g>
	<g>
		<path d="M60,384c-6.627,0-12,5.373-12,12s5.373,12,12,12s12-5.373,12-12S66.628,384,60,384z M60,400c-2.209,0-4-1.791-4-4
			c0-2.209,1.791-4,4-4s4,1.791,4,4C64,398.209,62.209,400,60,400z"/>
	</g>
</g>
<g>
	<g>
		<path d="M100,248.001c-6.627,0-12,5.373-12,12c0,6.627,5.373,12,12,12s12-5.373,12-12C112,253.373,106.628,248.001,100,248.001z
			 M100,264c-2.209,0-4-1.791-4-4c0-2.209,1.791-4,4-4s4,1.791,4,4C104,262.209,102.209,264,100,264z"/>
	</g>
</g>
<g>
	<g>
		<path d="M300,304c-6.627,0-12,5.373-12,12s5.373,12,12,12s12-5.373,12-12S306.628,304,300,304z M300,320c-2.209,0-4-1.791-4-4
			c0-2.209,1.791-4,4-4c2.209,0,4,1.791,4,4C304,318.209,302.209,320,300,320z"/>
	</g>
</g>
<g>
	<g>
		<path d="M300,360c-6.627,0-12,5.373-12,12s5.373,12,12,12s12-5.373,12-12S306.628,360,300,360z M300,376c-2.209,0-4-1.791-4-4
			c0-2.209,1.791-4,4-4c2.209,0,4,1.791,4,4C304,374.209,302.209,376,300,376z"/>
	</g>
</g>
<g>
	<g>
		<path d="M300,416c-6.627,0-12,5.373-12,12s5.373,12,12,12s12-5.373,12-12S306.628,416,300,416z M300,432c-2.209,0-4-1.791-4-4
			c0-2.209,1.791-4,4-4c2.209,0,4,1.791,4,4C304,430.209,302.209,432,300,432z"/>
	</g>
</g>
<g>
	<g>
		<path d="M340,272c-6.627,0-12,5.373-12,12s5.373,12,12,12s12-5.373,12-12S346.628,272,340,272z M340,288c-2.209,0-4-1.791-4-4
			c0-2.209,1.791-4,4-4c2.209,0,4,1.791,4,4C344,286.209,342.209,288,340,288z"/>
	</g>
</g>
<g>
	<g>
		<path d="M340,328c-6.627,0-12,5.373-12,12s5.373,12,12,12s12-5.373,12-12S346.628,328,340,328z M340,344c-2.209,0-4-1.791-4-4
			c0-2.209,1.791-4,4-4c2.209,0,4,1.791,4,4C344,342.209,342.209,344,340,344z"/>
	</g>
</g>
<g>
	<g>
		<path d="M340,384c-6.627,0-12,5.373-12,12s5.373,12,12,12s12-5.373,12-12S346.628,384,340,384z M340,400c-2.209,0-4-1.791-4-4
			c0-2.209,1.791-4,4-4c2.209,0,4,1.791,4,4C344,398.209,342.209,400,340,400z"/>
	</g>
</g>
<g>
	<g>
		<path d="M380,304c-6.627,0-12,5.373-12,12s5.373,12,12,12s12-5.373,12-12S386.628,304,380,304z M380,320c-2.209,0-4-1.791-4-4
			c0-2.209,1.791-4,4-4c2.209,0,4,1.791,4,4C384,318.209,382.209,320,380,320z"/>
	</g>
</g>
<g>
	<g>
		<path d="M380,360c-6.627,0-12,5.373-12,12s5.373,12,12,12s12-5.373,12-12S386.628,360,380,360z M380,376c-2.209,0-4-1.791-4-4
			c0-2.209,1.791-4,4-4c2.209,0,4,1.791,4,4C384,374.209,382.209,376,380,376z"/>
	</g>
</g>
<g>
	<g>
		<path d="M380,416c-6.627,0-12,5.373-12,12s5.373,12,12,12s12-5.373,12-12S386.628,416,380,416z M380,432c-2.209,0-4-1.791-4-4
			c0-2.209,1.791-4,4-4c2.209,0,4,1.791,4,4C384,430.209,382.209,432,380,432z"/>
	</g>
</g>
<g>
	<g>
		<path d="M420,272c-6.627,0-12,5.373-12,12s5.373,12,12,12s12-5.373,12-12S426.628,272,420,272z M420,288c-2.209,0-4-1.791-4-4
			c0-2.209,1.791-4,4-4c2.209,0,4,1.791,4,4C424,286.209,422.209,288,420,288z"/>
	</g>
</g>
<g>
	<g>
		<path d="M420,216.001c-6.627,0-12,5.373-12,12s5.373,12,12,12s12-5.373,12-12S426.628,216.001,420,216.001z M420,232.001
			c-2.209,0-4-1.791-4-4s1.791-4,4-4c2.209,0,4,1.791,4,4S422.209,232.001,420,232.001z"/>
	</g>
</g>
<g>
	<g>
		<path d="M420,328c-6.627,0-12,5.373-12,12s5.373,12,12,12s12-5.373,12-12S426.628,328,420,328z M420,344c-2.209,0-4-1.791-4-4
			c0-2.209,1.791-4,4-4c2.209,0,4,1.791,4,4C424,342.209,422.209,344,420,344z"/>
	</g>
</g>
<g>
	<g>
		<path d="M420,384c-6.627,0-12,5.373-12,12s5.373,12,12,12s12-5.373,12-12S426.628,384,420,384z M420,400c-2.209,0-4-1.791-4-4
			c0-2.209,1.791-4,4-4c2.209,0,4,1.791,4,4C424,398.209,422.209,400,420,400z"/>
	</g>
</g>
<g>
	<g>
		<path d="M380,248.001c-6.627,0-12,5.373-12,12c0,6.627,5.373,12,12,12s12-5.373,12-12C392,253.373,386.628,248.001,380,248.001z
			 M380,264c-2.209,0-4-1.791-4-4c0-2.209,1.791-4,4-4c2.209,0,4,1.791,4,4C384,262.209,382.209,264,380,264z"/>
	</g>
</g>
<g>
</g>
<g>
</g>
<g>
</g>
<g>
</g>
<g>
</g>
<g>
</g>
<g>
</g>
<g>
</g>
<g>
</g>
<g>
</g>
<g>
</g>
<g>
</g>
<g>
</g>
<g>
</g>
<g>
</g>
</svg>
